<?xml version="1.0" encoding="UTF-8"?>
<svg xmlns="http://www.w3.org/2000/svg" width="1280" height="800" viewBox="0 0 1280 800">
  <rect width="1280" height="800" fill="#eef3f6"/>
  <g transform="translate(92 72) scale(.4375)" fill="#111">
    <path d="M156.94,182.75l.09,12.89-80.37,26.6c-3.87,1.28-7.63,2.08-11.77,1.66-2.47-.25-5.51-.97-7.46-2.63-3.25-2.78-6.25-5.53-8.91-8.86-2.49-3.11-4.48-7.31-4.48-11.51l-.05-109.47c0-3.13.9-6.06,1.8-8.82,2.63-8.08,8.01-15.03,15.05-19.97,2.76-1.94,5.58-3.17,8.81-4.24l80.06-26.38,7.27,7.39v12.75s-27.95,9.16-27.95,9.16l-53.9,17.85c-2.14.71-3.83,2.42-5.29,3.97-2.92,3.08-4.47,6.59-5.39,10.78l-.03,108.49c2.08.38,3.9-.04,5.93-.71l39.51-13.05,39.77-13.17,7.3,7.29Z"/>
    <path d="M176.05,117.89l-6.46,1.91-87.14,28.64-7.03-7.22.02-12.39,89.41-29.49,15.4-5.06c-4.83-3.37-9.22-6.6-13.76-10.26l9.46-12.97,9.45,5.74,20.43,12.39,6.16,5.34-.08,10.04-29.93,38.86c-5.68-3.74-11.04-7.6-16.18-12.08l10.24-13.44Z"/>
    <path d="m82.39 179.41-6.99-7.17.02-12.21 66.89-22.13 6.96 6.89-.01 12.52-66.87 22.1ZM82.29 116.99 75.43 110V97.68l66.96-22.1 6.8 6.84.05 12.41-66.95 22.16Z"/>
  </g>
  <text x="236" y="112" fill="#17191b" font-family="Arial, Helvetica, sans-serif" font-size="46" font-weight="700">Export complete orders as CSV</text>
  <text x="238" y="156" fill="#5f6971" font-family="Arial, Helvetica, sans-serif" font-size="24">No copying, cleanup, or page-by-page assembly.</text>

  <rect x="88" y="228" width="1104" height="480" rx="18" fill="#fff" stroke="#c8d2d9" stroke-width="2"/>
  <rect x="88" y="228" width="1104" height="64" rx="18" fill="#f7f9fa"/>
  <path d="M88 274h1104" stroke="#c8d2d9" stroke-width="2"/>
  <circle cx="126" cy="260" r="8" fill="#d87b72"/>
  <circle cx="154" cy="260" r="8" fill="#e3b75f"/>
  <circle cx="182" cy="260" r="8" fill="#72b37b"/>
  <rect x="236" y="244" width="704" height="32" rx="8" fill="#e9eef1"/>
  <text x="258" y="266" fill="#69747b" font-family="Arial, Helvetica, sans-serif" font-size="15">ofb.primarius.app / View Order</text>

  <text x="136" y="350" fill="#22272b" font-family="Arial, Helvetica, sans-serif" font-size="26" font-weight="700">Order Details</text>
  <rect x="136" y="380" width="190" height="50" rx="6" fill="#176b3a" stroke="#10542d"/>
  <text x="231" y="412" text-anchor="middle" fill="#fff" font-family="Arial, Helvetica, sans-serif" font-size="18" font-weight="700">Export as CSV</text>
  <g transform="translate(346 393)" fill="none" stroke="#315d80" stroke-width="2" stroke-linecap="round" stroke-linejoin="round">
    <circle cx="12" cy="12" r="10"/>
    <path d="M12 16v-4M12 8h.01"/>
  </g>

  <rect x="136" y="466" width="1004" height="48" fill="#edf2f4"/>
  <text x="156" y="496" fill="#3f494f" font-family="Arial, Helvetica, sans-serif" font-size="16" font-weight="700">Product</text>
  <text x="654" y="496" fill="#3f494f" font-family="Arial, Helvetica, sans-serif" font-size="16" font-weight="700">Qty</text>
  <text x="758" y="496" fill="#3f494f" font-family="Arial, Helvetica, sans-serif" font-size="16" font-weight="700">Weight</text>
  <text x="904" y="496" fill="#3f494f" font-family="Arial, Helvetica, sans-serif" font-size="16" font-weight="700">Unit Price</text>
  <path d="M136 552h1004M136 612h1004M136 672h1004" stroke="#dbe2e6"/>
  <g fill="#687279" font-family="Arial, Helvetica, sans-serif" font-size="16">
    <text x="156" y="548">(00560) Product description</text><text x="670" y="548">2</text><text x="782" y="548">10.00</text><text x="930" y="548">$0.00</text>
    <text x="156" y="608">(60404) Product description</text><text x="670" y="608">4</text><text x="782" y="608">24.00</text><text x="930" y="608">$1.25</text>
    <text x="156" y="668">(98130) Product description</text><text x="664" y="668">12</text><text x="776" y="668">276.00</text><text x="930" y="668">$17.10</text>
  </g>
</svg>
