<?xml version="1.0" encoding="UTF-8"?>
<svg xmlns="http://www.w3.org/2000/svg" width="1280" height="800" viewBox="0 0 1280 800">
  <rect width="1280" height="800" fill="#e8eef2"/>
  <rect x="250" y="52" width="780" height="696" rx="24" fill="#f7fafc" stroke="#9aafbf" stroke-width="2"/>
  <g transform="translate(992 78)" fill="none" stroke="#5f6b73" stroke-width="3" stroke-linecap="round">
    <path d="m0 0 20 20M20 0 0 20"/>
  </g>
  <g transform="translate(576 82) scale(.25)" fill="#000">
    <path d="M45.5 281.5 0 324.6v23.5l226.8 156.7h59.8L512 345.2v-22.7l-46.2-41-23.5 7.8-168.5 54.5h-33.7L70.2 289.3l-24.7-7.8Z"/>
    <path d="m146.1 218 101-14.2h19.8l97.9 14.2 59.2 48.4v15.1l-149 31.3h-35.1L90 282.2v-15.8l56.1-48.4Z"/>
    <path d="M272 182.8h-22.2c-17.5 2.8-45.8 7.1-62.8 9.5v-7.6c0 .7 36.4-71.9 37.6-74.5l25-10.4h11.3l24.3 10.4c1.9 3.3 38 73.5 38.7 74.5v7.4c-15.6-2.8-36.4-6.4-52.2-9.2ZM439.4 187.2c0 22-4 38.3-11.6 58.5l-34.3-28.4s4.5-3.8 4.5-30.5-14.7-72.7-41.6-98.9C329.4 61.4 293.9 47 256.3 47c-38.1 0-73.3 14.4-100.1 40.9-27 26.7-41.6 72.7-41.6 98.9s4.5 30.5 4.5 30.5l-34.3 28.4c-7.6-20.6-11.6-36.9-11.6-58.5s4.7-47.8 14.2-70.3c9.2-21.8 22.7-40.9 39.5-57.3 16.6-16.3 36.2-29.6 58.2-38.8 22.7-9.5 46.6-14 71.2-14s48.3 4.5 71.2 14c22.5 9.2 41.6 22.5 58.2 38.8 16.8 16.3 30.3 36 39.5 57.3 9.5 22.5 14.2 48.3 14.2 70.3Z"/>
  </g>
  <text x="640" y="260" text-anchor="middle" fill="#17191b" font-family="Arial, Helvetica, sans-serif" font-size="38" font-weight="700">OFB Order CSV Exporter</text>
  <text x="640" y="302" text-anchor="middle" fill="#626b72" font-family="Arial, Helvetica, sans-serif" font-size="20">Complete Primarius order details, locally exported.</text>

  <g font-family="Arial, Helvetica, sans-serif" font-size="19">
    <g fill="#202326" font-weight="700" text-anchor="end">
      <text x="480" y="372">Made by</text><text x="480" y="414">Made for</text><text x="480" y="456">Made with</text><text x="480" y="498">Version</text><text x="480" y="540">License</text>
    </g>
    <g fill="#626b72">
      <text x="506" y="372">Matt Geiger, Temple Consulting, LLC. 2026</text><text x="506" y="414">Oregon Food Bank</text><text x="506" y="456">JavaScript, Chrome Extensions, and Codex</text><text x="506" y="498">1.0.1</text><text x="506" y="540">AGPL-3.0-only</text>
    </g>
  </g>

  <text x="640" y="604" text-anchor="middle" fill="#626b72" font-family="Arial, Helvetica, sans-serif" font-size="17">Order information is processed locally and is not sent</text>
  <text x="640" y="630" text-anchor="middle" fill="#626b72" font-family="Arial, Helvetica, sans-serif" font-size="17">to the developer or another service.</text>
  <rect x="488" y="666" width="304" height="52" rx="26" fill="#fff" stroke="#d1d9df"/>
  <text x="640" y="699" text-anchor="middle" fill="#202326" font-family="Arial, Helvetica, sans-serif" font-size="18" font-weight="700">Source Code on GitHub</text>
</svg>
