<?xml version="1.0" encoding="UTF-8"?>
<svg xmlns="http://www.w3.org/2000/svg" width="1280" height="800" viewBox="0 0 1280 800">
  <defs>
    <linearGradient id="feed-card" x1="0" y1="0" x2="0" y2="1">
      <stop offset="0" stop-color="#fbfdff"/>
      <stop offset="1" stop-color="#eef5fa"/>
    </linearGradient>
  </defs>
  <rect width="1280" height="800" fill="#e8eef2"/>
  <rect x="250" y="52" width="780" height="696" rx="19" fill="url(#feed-card)" stroke="#b9cad6" stroke-width="2"/>
  <g transform="translate(992 78)" fill="none" stroke="#5f6b73" stroke-width="3" stroke-linecap="round">
    <path d="m0 0 20 20M20 0 0 20"/>
  </g>
  <g transform="translate(576 82) scale(.25)" fill="#000">
    <path d="M45.5 281.5 0 324.6v23.5l226.8 156.7h59.8L512 345.2v-22.7l-46.2-41-23.5 7.8-168.5 54.5h-33.7L70.2 289.3l-24.7-7.8Z"/>
    <path d="m146.1 218 101-14.2h19.8l97.9 14.2 59.2 48.4v15.1l-149 31.3h-35.1L90 282.2v-15.8l56.1-48.4Z"/>
    <path d="M272 182.8h-22.2c-17.5 2.8-45.8 7.1-62.8 9.5v-7.6c0 .7 36.4-71.9 37.6-74.5l25-10.4h11.3l24.3 10.4c1.9 3.3 38 73.5 38.7 74.5v7.4c-15.6-2.8-36.4-6.4-52.2-9.2ZM439.4 187.2c0 22-4 38.3-11.6 58.5l-34.3-28.4s4.5-3.8 4.5-30.5-14.7-72.7-41.6-98.9C329.4 61.4 293.9 47 256.3 47c-38.1 0-73.3 14.4-100.1 40.9-27 26.7-41.6 72.7-41.6 98.9s4.5 30.5 4.5 30.5l-34.3 28.4c-7.6-20.6-11.6-36.9-11.6-58.5s4.7-47.8 14.2-70.3c9.2-21.8 22.7-40.9 39.5-57.3 16.6-16.3 36.2-29.6 58.2-38.8 22.7-9.5 46.6-14 71.2-14s48.3 4.5 71.2 14c22.5 9.2 41.6 22.5 58.2 38.8 16.8 16.3 30.3 36 39.5 57.3 9.5 22.5 14.2 48.3 14.2 70.3Z"/>
  </g>
  <text x="640" y="250" text-anchor="middle" fill="#17191b" font-family="Arial, Helvetica, sans-serif" font-size="38" font-weight="600">OFB Order CSV Exporter</text>
  <text x="640" y="282" text-anchor="middle" fill="#626b72" font-family="Arial, Helvetica, sans-serif" font-size="18" font-weight="500">Order data, ready for analysis</text>
  <text x="640" y="316" text-anchor="middle" fill="#626b72" font-family="Arial, Helvetica, sans-serif" font-size="18">Exports complete Primarius order details as a structured CSV.</text>

  <g font-family="Arial, Helvetica, sans-serif" font-size="19">
    <g fill="#202326" font-weight="700" text-anchor="end">
      <text x="480" y="372">Made by</text><text x="480" y="414">Made for</text><text x="480" y="456">Made with</text><text x="480" y="498">Version</text><text x="480" y="540">License</text>
    </g>
    <g fill="#626b72">
      <text x="506" y="372">Matt Geiger, Temple Consulting, LLC. 2026</text><text x="506" y="414">Oregon Food Bank</text><text x="506" y="456">JavaScript, Chrome Extensions, and Codex</text><text x="506" y="498">1.0.2</text><text x="506" y="540">AGPL-3.0-only</text>
    </g>
  </g>

  <text x="640" y="594" text-anchor="middle" fill="#626b72" font-family="Arial, Helvetica, sans-serif" font-size="16">The extension code is open source. OFB and Primarius branding is not</text>
  <text x="640" y="618" text-anchor="middle" fill="#626b72" font-family="Arial, Helvetica, sans-serif" font-size="16">covered by the software license. Order information stays local.</text>
  <rect x="488" y="664" width="304" height="44" rx="6" fill="#f4f4f5"/>
  <g transform="translate(516 675) scale(.75)" fill="none" stroke="#202326" stroke-width="2" stroke-linecap="round" stroke-linejoin="round">
    <path d="M15 22v-4a4.8 4.8 0 0 0-1-3.5c3.28 0 6.72-2 6.72-5.5A4.5 4.5 0 0 0 19.5 5.8 4.22 4.22 0 0 0 19.4 2S18.23 1.65 15 3.48a13.38 13.38 0 0 0-7 0C4.77 1.65 3.6 2 3.6 2a4.22 4.22 0 0 0-.1 3.8A4.5 4.5 0 0 0 2.28 9c0 3.5 3.44 5.5 6.72 5.5-.39.49-.68 1.05-.85 1.65-.17.6-.22 1.23-.15 1.85v4"/><path d="M9 18c-4.51 2-5-2-7-2"/>
  </g>
  <text x="655" y="692" text-anchor="middle" fill="#202326" font-family="Arial, Helvetica, sans-serif" font-size="18" font-weight="500">Source Code on GitHub</text>
</svg>
