<?xml version="1.0" encoding="UTF-8"?><svg id="Layer_1" xmlns="http://www.w3.org/2000/svg" viewBox="0 0 256 256"><defs><style>.cls-1{fill:#111;}</style></defs><g id="Generative_Object_-30_-30_"><path class="cls-1" d="M156.94,182.75l.09,12.89-80.37,26.6c-3.87,1.28-7.63,2.08-11.77,1.66-2.47-.25-5.51-.97-7.46-2.63-3.25-2.78-6.25-5.53-8.91-8.86-2.49-3.11-4.48-7.31-4.48-11.51l-.05-109.47c0-3.13.9-6.06,1.8-8.82,2.63-8.08,8.01-15.03,15.05-19.97,2.76-1.94,5.58-3.17,8.81-4.24l80.06-26.38,7.27,7.39v12.75s-27.95,9.16-27.95,9.16l-53.9,17.85c-2.14.71-3.83,2.42-5.29,3.97-2.92,3.08-4.47,6.59-5.39,10.78l-.03,108.49c2.08.38,3.9-.04,5.93-.71l39.51-13.05,39.77-13.17,7.3,7.29Z"/><path class="cls-1" d="M176.05,117.89l-6.46,1.91-87.14,28.64-7.03-7.22.02-12.39,89.41-29.49,15.4-5.06c-4.83-3.37-9.22-6.6-13.76-10.26l9.46-12.97,9.45,5.74,20.43,12.39,6.16,5.34-.08,10.04-29.93,38.86c-5.68-3.74-11.04-7.6-16.18-12.08l10.24-13.44Z"/><polygon class="cls-1" points="82.39 179.41 75.4 172.24 75.42 160.03 142.31 137.9 149.27 144.79 149.26 157.31 82.39 179.41"/><polygon class="cls-1" points="82.29 116.99 75.43 110 75.43 97.68 142.39 75.58 149.19 82.42 149.24 94.83 82.29 116.99"/></g></svg>